HIERARCHY
ROOT mixamorig:Hips
{
	OFFSET -0.000008 104.274872 1.554316
	CHANNELS 6 Xposition Yposition Zposition Xrotation Yrotation Zrotation
	JOINT mixamorig:Spine
	{
		OFFSET -0.000005 10.181595 0.131519
		CHANNELS 6 Xposition Yposition Zposition Xrotation Yrotation Zrotation
		JOINT mixamorig:Spine1
		{
			OFFSET -0.000000 9.893959 -1.470707
			CHANNELS 6 Xposition Yposition Zposition Xrotation Yrotation Zrotation
			JOINT mixamorig:Spine2
			{
				OFFSET -0.000000 9.220757 -1.370641
				CHANNELS 6 Xposition Yposition Zposition Xrotation Yrotation Zrotation
				JOINT mixamorig:Neck
				{
					OFFSET 0.000001 16.740417 -2.049036
					CHANNELS 6 Xposition Yposition Zposition Xrotation Yrotation Zrotation
					JOINT mixamorig:Head
					{
						OFFSET 0.000000 9.617874 1.685006
						CHANNELS 6 Xposition Yposition Zposition Xrotation Yrotation Zrotation
						JOINT mixamorig:HeadTop_End
						{
							OFFSET 0.000002 22.037354 7.501101
							CHANNELS 6 Xposition Yposition Zposition Xrotation Yrotation Zrotation
							End Site
							{
								OFFSET 0.000168 2310.654297 -282.823242
							}
						}
					}
				}
				JOINT mixamorig:RightShoulder
				{
					OFFSET -4.569970 11.014908 -2.160885
					CHANNELS 6 Xposition Yposition Zposition Xrotation Yrotation Zrotation
					JOINT mixamorig:RightArm
					{
						OFFSET -10.592851 -0.524811 -2.232101
						CHANNELS 6 Xposition Yposition Zposition Xrotation Yrotation Zrotation
						JOINT mixamorig:RightForeArm
						{
							OFFSET -27.841511 0.000031 -0.000004
							CHANNELS 6 Xposition Yposition Zposition Xrotation Yrotation Zrotation
							JOINT mixamorig:RightHand
							{
								OFFSET -28.328831 -0.000015 0.000015
								CHANNELS 6 Xposition Yposition Zposition Xrotation Yrotation Zrotation
								JOINT mixamorig:RightHandThumb1
								{
									OFFSET -2.464806 -1.573990 2.681852
									CHANNELS 6 Xposition Yposition Zposition Xrotation Yrotation Zrotation
									JOINT mixamorig:RightHandThumb2
									{
										OFFSET -3.215179 -1.872803 1.924282
										CHANNELS 6 Xposition Yposition Zposition Xrotation Yrotation Zrotation
										JOINT mixamorig:RightHandThumb3
										{
											OFFSET -2.654831 -1.527969 1.512609
											CHANNELS 6 Xposition Yposition Zposition Xrotation Yrotation Zrotation
											JOINT mixamorig:RightHandThumb4
											{
												OFFSET -2.018814 -1.152008 1.108052
												CHANNELS 6 Xposition Yposition Zposition Xrotation Yrotation Zrotation
												End Site
												{
													OFFSET -188.809540 -114.533607 132.431396
												}
											}
										}
									}
								}
								JOINT mixamorig:RightHandIndex1
								{
									OFFSET -9.108284 -0.517868 2.259835
									CHANNELS 6 Xposition Yposition Zposition Xrotation Yrotation Zrotation
									JOINT mixamorig:RightHandIndex2
									{
										OFFSET -3.699989 0.000000 0.001215
										CHANNELS 6 Xposition Yposition Zposition Xrotation Yrotation Zrotation
										JOINT mixamorig:RightHandIndex3
										{
											OFFSET -2.850006 0.000031 -0.000522
											CHANNELS 6 Xposition Yposition Zposition Xrotation Yrotation Zrotation
											JOINT mixamorig:RightHandIndex4
											{
												OFFSET -2.772186 -0.000015 -0.000020
												CHANNELS 6 Xposition Yposition Zposition Xrotation Yrotation Zrotation
												End Site
												{
													OFFSET -277.218445 0.000000 -0.050231
												}
											}
										}
									}
								}
								JOINT mixamorig:RightHandMiddle1
								{
									OFFSET -9.532516 -0.000031 -0.000023
									CHANNELS 6 Xposition Yposition Zposition Xrotation Yrotation Zrotation
									JOINT mixamorig:RightHandMiddle2
									{
										OFFSET -3.700005 -0.000015 0.003713
										CHANNELS 6 Xposition Yposition Zposition Xrotation Yrotation Zrotation
										JOINT mixamorig:RightHandMiddle3
										{
											OFFSET -2.949974 0.000015 -0.002054
											CHANNELS 6 Xposition Yposition Zposition Xrotation Yrotation Zrotation
											JOINT mixamorig:RightHandMiddle4
											{
												OFFSET -2.946640 0.000000 -0.000156
												CHANNELS 6 Xposition Yposition Zposition Xrotation Yrotation Zrotation
												End Site
												{
													OFFSET -294.664337 0.000000 -0.113670
												}
											}
										}
									}
								}
								JOINT mixamorig:RightHandRing1
								{
									OFFSET -9.103600 -0.043076 -1.865134
									CHANNELS 6 Xposition Yposition Zposition Xrotation Yrotation Zrotation
									JOINT mixamorig:RightHandRing2
									{
										OFFSET -3.379288 0.000000 -0.001055
										CHANNELS 6 Xposition Yposition Zposition Xrotation Yrotation Zrotation
										JOINT mixamorig:RightHandRing3
										{
											OFFSET -2.889687 -0.000015 0.000379
											CHANNELS 6 Xposition Yposition Zposition Xrotation Yrotation Zrotation
											JOINT mixamorig:RightHandRing4
											{
												OFFSET -2.638809 -0.000015 0.000941
												CHANNELS 6 Xposition Yposition Zposition Xrotation Yrotation Zrotation
												End Site
												{
													OFFSET -263.880371 0.000000 0.516020
												}
											}
										}
									}
								}
								JOINT mixamorig:RightHandPinky1
								{
									OFFSET -8.076683 -0.486710 -3.806280
									CHANNELS 6 Xposition Yposition Zposition Xrotation Yrotation Zrotation
									JOINT mixamorig:RightHandPinky2
									{
										OFFSET -3.600014 -0.000015 -0.003747
										CHANNELS 6 Xposition Yposition Zposition Xrotation Yrotation Zrotation
										JOINT mixamorig:RightHandPinky3
										{
											OFFSET -2.099983 0.000000 -0.005739
											CHANNELS 6 Xposition Yposition Zposition Xrotation Yrotation Zrotation
											JOINT mixamorig:RightHandPinky4
											{
												OFFSET -2.115768 -0.000031 -0.003680
												CHANNELS 6 Xposition Yposition Zposition Xrotation Yrotation Zrotation
												End Site
												{
													OFFSET -211.577087 0.000000 -0.350686
												}
											}
										}
									}
								}
							}
						}
					}
				}
				JOINT mixamorig:LeftShoulder
				{
					OFFSET 4.570447 11.014725 -2.160855
					CHANNELS 6 Xposition Yposition Zposition Xrotation Yrotation Zrotation
					JOINT mixamorig:LeftArm
					{
						OFFSET 10.592371 -0.524597 -2.232119
						CHANNELS 6 Xposition Yposition Zposition Xrotation Yrotation Zrotation
						JOINT mixamorig:LeftForeArm
						{
							OFFSET 27.841532 -0.000031 0.000026
							CHANNELS 6 Xposition Yposition Zposition Xrotation Yrotation Zrotation
							JOINT mixamorig:LeftHand
							{
								OFFSET 28.328846 -0.000061 0.000022
								CHANNELS 6 Xposition Yposition Zposition Xrotation Yrotation Zrotation
								JOINT mixamorig:LeftHandThumb1
								{
									OFFSET 2.466141 -1.576172 2.681732
									CHANNELS 6 Xposition Yposition Zposition Xrotation Yrotation Zrotation
									JOINT mixamorig:LeftHandThumb2
									{
										OFFSET 3.217812 -1.872070 1.916482
										CHANNELS 6 Xposition Yposition Zposition Xrotation Yrotation Zrotation
										JOINT mixamorig:LeftHandThumb3
										{
											OFFSET 2.656029 -1.528778 1.514513
											CHANNELS 6 Xposition Yposition Zposition Xrotation Yrotation Zrotation
											JOINT mixamorig:LeftHandThumb4
											{
												OFFSET 2.020889 -1.154053 1.115139
												CHANNELS 6 Xposition Yposition Zposition Xrotation Yrotation Zrotation
												End Site
												{
													OFFSET 190.885437 -115.081749 130.048782
												}
											}
										}
									}
								}
								JOINT mixamorig:LeftHandIndex1
								{
									OFFSET 9.109314 -0.518021 2.259871
									CHANNELS 6 Xposition Yposition Zposition Xrotation Yrotation Zrotation
									JOINT mixamorig:LeftHandIndex2
									{
										OFFSET 3.699989 0.000000 -0.000322
										CHANNELS 6 Xposition Yposition Zposition Xrotation Yrotation Zrotation
										JOINT mixamorig:LeftHandIndex3
										{
											OFFSET 2.850006 0.000000 0.000352
											CHANNELS 6 Xposition Yposition Zposition Xrotation Yrotation Zrotation
											JOINT mixamorig:LeftHandIndex4
											{
												OFFSET 2.774864 -0.000031 -0.000027
												CHANNELS 6 Xposition Yposition Zposition Xrotation Yrotation Zrotation
												End Site
												{
													OFFSET 277.486267 0.000000 -0.009857
												}
											}
										}
									}
								}
								JOINT mixamorig:LeftHandMiddle1
								{
									OFFSET 9.533394 0.000061 0.000044
									CHANNELS 6 Xposition Yposition Zposition Xrotation Yrotation Zrotation
									JOINT mixamorig:LeftHandMiddle2
									{
										OFFSET 3.699989 -0.000015 -0.000231
										CHANNELS 6 Xposition Yposition Zposition Xrotation Yrotation Zrotation
										JOINT mixamorig:LeftHandMiddle3
										{
											OFFSET 2.949997 -0.000015 -0.000059
											CHANNELS 6 Xposition Yposition Zposition Xrotation Yrotation Zrotation
											JOINT mixamorig:LeftHandMiddle4
											{
												OFFSET 2.952896 0.000031 0.000063
												CHANNELS 6 Xposition Yposition Zposition Xrotation Yrotation Zrotation
												End Site
												{
													OFFSET 295.289337 0.000000 0.022810
												}
											}
										}
									}
								}
								JOINT mixamorig:LeftHandRing1
								{
									OFFSET 9.104523 -0.042999 -1.865074
									CHANNELS 6 Xposition Yposition Zposition Xrotation Yrotation Zrotation
									JOINT mixamorig:LeftHandRing2
									{
										OFFSET 3.150009 -0.000031 0.000043
										CHANNELS 6 Xposition Yposition Zposition Xrotation Yrotation Zrotation
										JOINT mixamorig:LeftHandRing3
										{
											OFFSET 2.949982 -0.000015 0.000040
											CHANNELS 6 Xposition Yposition Zposition Xrotation Yrotation Zrotation
											JOINT mixamorig:LeftHandRing4
											{
												OFFSET 2.644348 0.000000 0.000057
												CHANNELS 6 Xposition Yposition Zposition Xrotation Yrotation Zrotation
												End Site
												{
													OFFSET 264.434631 0.000000 0.012105
												}
											}
										}
									}
								}
								JOINT mixamorig:LeftHandPinky1
								{
									OFFSET 8.077789 -0.486847 -3.806259
									CHANNELS 6 Xposition Yposition Zposition Xrotation Yrotation Zrotation
									JOINT mixamorig:LeftHandPinky2
									{
										OFFSET 3.599953 0.000031 0.014727
										CHANNELS 6 Xposition Yposition Zposition Xrotation Yrotation Zrotation
										JOINT mixamorig:LeftHandPinky3
										{
											OFFSET 2.100021 0.000015 0.007705
											CHANNELS 6 Xposition Yposition Zposition Xrotation Yrotation Zrotation
											JOINT mixamorig:LeftHandPinky4
											{
												OFFSET 2.125504 0.000031 0.007517
												CHANNELS 6 Xposition Yposition Zposition Xrotation Yrotation Zrotation
												End Site
												{
													OFFSET 212.550781 0.000000 0.625752
												}
											}
										}
									}
								}
							}
						}
					}
				}
			}
		}
	}
	JOINT mixamorig:RightUpLeg
	{
		OFFSET -8.207787 -6.751648 -1.599560
		CHANNELS 6 Xposition Yposition Zposition Xrotation Yrotation Zrotation
		JOINT mixamorig:RightLeg
		{
			OFFSET -0.000002 -44.370117 0.345942
			CHANNELS 6 Xposition Yposition Zposition Xrotation Yrotation Zrotation
			JOINT mixamorig:RightFoot
			{
				OFFSET 0.000003 -44.423679 -3.043532
				CHANNELS 6 Xposition Yposition Zposition Xrotation Yrotation Zrotation
				JOINT mixamorig:RightToeBase
				{
					OFFSET -0.000002 -8.728671 10.710558
					CHANNELS 6 Xposition Yposition Zposition Xrotation Yrotation Zrotation
					JOINT mixamorig:RightToe_End
					{
						OFFSET -0.000001 -0.000679 9.278119
						CHANNELS 6 Xposition Yposition Zposition Xrotation Yrotation Zrotation
						End Site
						{
							OFFSET 0.000000 -0.067690 927.812134
						}
					}
				}
			}
		}
	}
	JOINT mixamorig:LeftUpLeg
	{
		OFFSET 8.207793 -6.751686 -1.599556
		CHANNELS 6 Xposition Yposition Zposition Xrotation Yrotation Zrotation
		JOINT mixamorig:LeftLeg
		{
			OFFSET -0.000004 -44.370014 0.346954
			CHANNELS 6 Xposition Yposition Zposition Xrotation Yrotation Zrotation
			JOINT mixamorig:LeftFoot
			{
				OFFSET -0.000001 -44.423672 -3.044401
				CHANNELS 6 Xposition Yposition Zposition Xrotation Yrotation Zrotation
				JOINT mixamorig:LeftToeBase
				{
					OFFSET -0.000002 -8.728669 10.710558
					CHANNELS 6 Xposition Yposition Zposition Xrotation Yrotation Zrotation
					JOINT mixamorig:LeftToe_End
					{
						OFFSET -0.000003 -0.000679 9.278133
						CHANNELS 6 Xposition Yposition Zposition Xrotation Yrotation Zrotation
						End Site
						{
							OFFSET 0.000000 -0.068021 927.813477
						}
					}
				}
			}
		}
	}
}
MOTION
Frames: 3
Frame Time: 0.033333
0.000006 104.270477 1.554256 0.000010 0.000003 -0.000113 -0.000005 10.181587 0.131522 0.000001 -0.000003 0.000084 -0.000000 9.893967 -1.470711 0.000001 0.000000 -0.000000 -0.000000 9.220802 -1.370642 0.000000 -0.000000 -0.000000 0.000001 16.740433 -2.049030 0.000000 -0.000000 -0.000000 0.000000 9.617859 1.685014 0.000000 0.000000 0.000000 0.000002 22.037384 7.501101 0.000000 -0.000000 0.000000 -4.569968 11.014880 -2.160881 0.000008 0.000001 -0.000038 -10.592867 -0.524779 -2.231894 76.614512 31.902448 -25.446857 -27.841536 -0.000003 0.000542 -53.591648 105.574138 67.252556 -28.328819 0.000005 0.000034 -0.000321 -0.000041 0.000006 -2.464450 -1.573980 2.682392 -21.963320 -151.388807 40.354148 -3.215274 -1.872565 1.924659 155.822037 32.631922 8.856688 -2.654960 -1.527899 1.513071 147.680465 26.627084 -38.711634 -2.018827 -1.152004 1.108069 -0.000003 -0.000000 0.000002 -9.108393 -0.517568 2.260172 108.113849 17.682996 -24.282480 -3.700061 0.000312 0.001541 105.120020 11.140500 -14.488025 -2.850060 0.000387 -0.000221 104.189427 7.678148 -9.850437 -2.772186 -0.000002 -0.000023 -0.000000 0.000002 -0.000000 -9.532598 0.000256 0.000264 98.700728 18.364926 -21.492975 -3.700067 0.000329 0.003982 97.586451 10.026781 -11.336511 -2.950032 0.000336 -0.001818 97.568528 8.358109 -9.529197 -2.946626 0.000004 -0.000155 -0.000002 -0.000001 -0.000002 -9.103716 -0.042778 -1.864832 97.151948 20.482805 -23.092333 -3.379349 0.000315 -0.000792 96.768160 9.705475 -10.937985 -2.889748 0.000383 0.000643 101.234161 4.581109 -5.632759 -2.638803 0.000004 0.000938 0.000001 0.000002 0.000000 -8.076755 -0.486399 -3.806018 87.170610 20.370232 -19.259634 -3.600049 0.000276 -0.003518 88.889400 10.893091 -10.326113 -2.100030 0.000325 -0.005470 92.449049 5.914120 -5.942217 -2.115763 -0.000029 -0.003678 0.000004 -0.000001 -0.000002 4.570446 11.014691 -2.160851 -0.000018 0.000010 -0.000021 10.592400 -0.524470 -2.232357 74.601703 -12.555244 9.581003 27.841808 0.000040 -0.000194 94.775165 -72.893637 77.514519 28.328831 -0.000029 0.000019 0.000021 -0.000089 0.000000 2.466163 -1.576166 2.681890 -13.748153 156.203353 -58.050386 3.217847 -1.871755 1.916386 162.705269 -27.468302 18.924521 2.656100 -1.528672 1.514470 139.800134 -27.670635 50.895954 2.020883 -1.154083 1.115148 -0.000000 0.000006 0.000006 9.109378 -0.517877 2.259758 82.777200 -18.733563 16.530770 3.700027 0.000116 -0.000467 77.181479 -18.598742 14.904093 2.850048 0.000149 0.000200 75.134294 -15.239069 11.748941 2.774883 -0.000028 -0.000026 -0.000000 0.000001 0.000002 9.533470 0.000200 -0.000086 82.422673 -17.138524 15.027784 3.700046 0.000154 -0.000368 82.958897 -14.816861 13.112858 2.950075 0.000147 -0.000178 80.491293 -18.578833 15.767429 2.952863 -0.000029 0.000063 -0.000000 0.000001 -0.000002 9.104584 -0.042863 -1.865207 80.385801 -16.027727 13.567996 3.150044 0.000188 -0.000098 85.052514 -11.871650 10.896226 2.950016 0.000163 -0.000080 86.693747 -13.971846 13.196814 2.644338 0.000028 0.000056 0.000001 0.000001 0.000001 8.077833 -0.486758 -3.806383 67.487556 -17.288892 12.004633 3.599994 0.000134 0.014565 68.213133 -13.183707 9.301039 2.100044 0.000135 0.007561 72.321431 -13.202471 10.030881 2.125510 -0.000031 0.007515 -0.000002 0.000003 0.000000 -8.207786 -6.751667 -1.599560 -0.077001 -0.000003 0.000080 -0.000002 -44.370110 0.345938 0.153719 -0.000000 -0.000000 0.000000 -44.423679 -3.043532 -0.076700 0.000000 -0.000002 -0.000006 -8.728667 10.710559 -0.000009 -0.000000 -0.000000 -0.000001 -0.000679 9.278123 0.000000 -0.000000 -0.000000 8.207792 -6.751710 -1.599556 -0.074518 -0.000003 0.000081 -0.000002 -44.370014 0.346960 0.148822 0.000002 0.000000 -0.000001 -44.423664 -3.044403 -0.074314 0.000000 -0.000002 -0.000004 -8.728671 10.710558 0.000007 -0.000000 -0.000000 0.000000 -0.000680 9.278137 -0.000000 0.000000 -0.000001 
0.000006 104.270477 1.554256 0.000010 0.000003 -0.000113 -0.000005 10.181587 0.131522 0.000001 -0.000003 0.000084 -0.000000 9.893967 -1.470711 0.000001 0.000000 -0.000000 -0.000000 9.220802 -1.370642 0.000000 -0.000000 -0.000000 0.000001 16.740433 -2.049030 0.000000 -0.000000 -0.000000 0.000000 9.617859 1.685014 0.000000 0.000000 0.000000 0.000002 22.037384 7.501101 0.000000 -0.000000 0.000000 -4.569968 11.014880 -2.160881 0.000008 0.000001 -0.000038 -10.592869 -0.524791 -2.231872 76.039185 36.511183 -28.922463 -27.841518 0.000010 0.000545 -51.415793 103.558194 62.878059 -28.328817 0.000006 0.000032 -0.000319 -0.000043 0.000008 -2.464407 -1.573943 2.682371 -28.240308 -149.814886 27.969488 -3.215227 -1.872492 1.924609 147.661149 34.270010 34.629107 -2.654962 -1.527869 1.513064 146.762583 27.632439 -29.948368 -2.018831 -1.152019 1.108071 -0.000002 0.000001 0.000004 -9.108367 -0.517555 2.260170 108.865470 15.339869 -21.395974 -3.700060 0.000323 0.001531 105.216359 12.019298 -15.654198 -2.850089 0.000377 -0.000213 103.767191 10.124974 -12.883194 -2.772149 -0.000016 -0.000015 0.000001 0.000002 0.000000 -9.532578 0.000280 0.000252 96.406215 14.788150 -16.675366 -3.700078 0.000342 0.003979 96.852683 8.777185 -9.787443 -2.950055 0.000349 -0.001800 98.665682 10.021382 -11.645826 -2.946638 -0.000016 -0.000153 -0.000003 -0.000000 -0.000001 -9.103695 -0.042754 -1.864871 94.946152 17.098036 -18.567203 -3.379326 0.000319 -0.000791 97.971038 6.187891 -7.131554 -2.889756 0.000373 0.000690 104.475291 5.691484 -7.401207 -2.638823 -0.000026 0.000943 0.000001 -0.000002 -0.000001 -8.076741 -0.486397 -3.806012 85.503368 19.493355 -17.902903 -3.600041 0.000290 -0.003531 88.571974 7.571278 -7.043028 -2.100010 0.000303 -0.005490 93.203593 4.598024 -4.633821 -2.115779 -0.000056 -0.003679 0.000001 0.000001 -0.000002 4.570446 11.014691 -2.160851 -0.000018 0.000010 -0.000021 10.592389 -0.524482 -2.232330 74.117258 -8.249196 6.234183 27.841822 0.000043 -0.000199 96.076904 -75.200383 81.156799 28.328833 -0.000029 0.000021 0.000020 -0.000089 -0.000000 2.466269 -1.576068 2.681832 4.364563 169.415862 -98.563653 3.217851 -1.871822 1.916394 166.510299 -24.009838 30.911619 2.656113 -1.528681 1.514496 142.873747 -26.253283 57.385385 2.020891 -1.154071 1.115135 0.000003 0.000006 0.000006 9.109385 -0.517878 2.259758 84.204109 -21.018043 19.019819 3.700026 0.000142 -0.000468 80.794458 -12.747071 10.874308 2.850049 0.000187 0.000197 79.068162 -10.147178 8.380762 2.774895 -0.000032 -0.000019 0.000000 0.000001 -0.000000 9.533464 0.000183 -0.000070 82.888457 -19.691953 17.417310 3.700030 0.000174 -0.000388 85.680044 -9.876133 9.158976 2.950041 0.000178 -0.000193 85.775940 -10.767967 10.008712 2.952880 -0.000015 0.000062 0.000001 -0.000000 0.000000 9.104595 -0.042875 -1.865222 80.360215 -19.735089 16.714646 3.150030 0.000198 -0.000088 87.702812 -11.235335 10.798060 2.950012 0.000187 -0.000085 88.686263 -10.107354 9.881045 2.644326 0.000031 0.000055 -0.000000 -0.000000 -0.000000 8.077842 -0.486754 -3.806398 70.277783 -20.847964 15.197495 3.600010 0.000146 0.014585 72.329675 -16.816380 12.726347 2.100045 0.000164 0.007527 75.077023 -13.141360 10.495054 2.125484 -0.000017 0.007505 0.000000 0.000004 0.000001 -8.207786 -6.751667 -1.599560 -0.077001 -0.000003 0.000080 -0.000002 -44.370110 0.345938 0.153719 -0.000000 -0.000000 0.000000 -44.423679 -3.043532 -0.076700 0.000000 -0.000002 -0.000006 -8.728667 10.710559 -0.000009 -0.000000 -0.000000 -0.000001 -0.000679 9.278123 0.000000 -0.000000 -0.000000 8.207792 -6.751710 -1.599556 -0.074518 -0.000003 0.000081 -0.000002 -44.370014 0.346960 0.148822 0.000002 0.000000 -0.000001 -44.423664 -3.044403 -0.074314 0.000000 -0.000002 -0.000004 -8.728671 10.710558 0.000007 -0.000000 -0.000000 0.000000 -0.000680 9.278137 -0.000000 0.000000 -0.000001 
0.000006 104.270477 1.554256 0.000010 0.000003 -0.000113 -0.000005 10.181587 0.131522 0.000001 -0.000003 0.000084 -0.000000 9.893967 -1.470711 0.000001 0.000000 -0.000000 -0.000000 9.220802 -1.370642 0.000000 -0.000000 -0.000000 0.000001 16.740433 -2.049030 0.000000 -0.000000 -0.000000 0.000000 9.617859 1.685014 0.000000 0.000000 0.000000 0.000002 22.037384 7.501101 0.000000 -0.000000 0.000000 -4.569968 11.014880 -2.160881 0.000008 0.000001 -0.000038 -10.592861 -0.524796 -2.231842 75.646244 39.776102 -31.374074 -27.841537 -0.000002 0.000559 -50.341841 102.920945 61.078195 -28.328833 0.000023 0.000028 -0.000324 -0.000043 0.000008 -2.464413 -1.573943 2.682377 -26.138678 -149.508743 31.617987 -3.215242 -1.872510 1.924625 149.044208 34.366595 31.542087 -2.654979 -1.527889 1.513065 146.796871 27.486556 -31.492882 -2.018842 -1.152003 1.108052 -0.000004 -0.000001 0.000002 -9.108357 -0.517552 2.260167 108.756235 16.276136 -22.638073 -3.700062 0.000315 0.001554 105.141521 13.246387 -17.222530 -2.850093 0.000351 -0.000217 103.895251 11.192788 -14.269378 -2.772147 -0.000000 -0.000019 -0.000001 -0.000001 -0.000000 -9.532578 0.000277 0.000257 96.256907 15.877343 -17.843786 -3.700050 0.000332 0.003973 96.888105 9.618713 -10.740072 -2.950060 0.000337 -0.001776 99.221905 10.743509 -12.606146 -2.946625 -0.000001 -0.000153 0.000002 -0.000000 0.000000 -9.103701 -0.042756 -1.864858 94.429346 18.163146 -19.548661 -3.379312 0.000342 -0.000783 97.733102 6.810897 -7.814565 -2.889738 0.000349 0.000672 104.443489 6.088427 -7.908533 -2.638810 -0.000014 0.000946 -0.000001 0.000002 0.000000 -8.076753 -0.486398 -3.806023 85.044748 20.404043 -18.599997 -3.600041 0.000289 -0.003516 88.435083 8.482252 -7.908765 -2.100023 0.000305 -0.005508 93.461474 5.286176 -5.383287 -2.115777 -0.000053 -0.003683 -0.000001 0.000000 -0.000003 4.570446 11.014691 -2.160851 -0.000018 0.000010 -0.000021 10.592408 -0.524473 -2.232356 73.695275 -15.699140 11.797244 27.841818 0.000058 -0.000207 96.617090 -75.968875 82.480149 28.328840 -0.000027 0.000020 0.000023 -0.000089 -0.000000 2.466233 -1.576056 2.681835 6.442397 168.872247 -100.264438 3.217867 -1.871810 1.916406 165.943667 -23.550637 32.905119 2.656118 -1.528670 1.514492 141.793306 -26.711866 56.494076 2.020899 -1.154051 1.115133 0.000004 0.000002 0.000002 9.109387 -0.517882 2.259750 84.385969 -21.118011 19.170630 3.700048 0.000152 -0.000463 80.652745 -12.501346 10.637924 2.850048 0.000173 0.000208 79.262091 -10.027126 8.309921 2.774888 -0.000031 -0.000024 0.000000 -0.000001 -0.000000 9.533474 0.000184 -0.000066 83.217351 -20.098672 17.880243 3.700035 0.000176 -0.000385 85.358677 -10.159707 9.369599 2.950052 0.000185 -0.000209 86.038800 -10.604220 9.901637 2.952874 -0.000029 0.000064 0.000001 0.000002 -0.000001 9.104576 -0.042870 -1.865209 81.197077 -20.116259 17.289531 3.150052 0.000199 -0.000103 86.754399 -11.568051 10.936330 2.950028 0.000176 -0.000087 87.672465 -10.098272 9.699774 2.644325 0.000030 0.000055 -0.000000 0.000001 -0.000000 8.077834 -0.486754 -3.806383 71.448171 -21.350005 15.894011 3.600013 0.000138 0.014583 72.636241 -17.175856 13.065681 2.100043 0.000161 0.007563 75.361917 -13.041728 10.470955 2.125515 -0.000003 0.007518 -0.000001 -0.000000 -0.000002 -8.207786 -6.751667 -1.599560 -0.077001 -0.000003 0.000080 -0.000002 -44.370110 0.345938 0.153719 -0.000000 -0.000000 0.000000 -44.423679 -3.043532 -0.076700 0.000000 -0.000002 -0.000006 -8.728667 10.710559 -0.000009 -0.000000 -0.000000 -0.000001 -0.000679 9.278123 0.000000 -0.000000 -0.000000 8.207792 -6.751710 -1.599556 -0.074518 -0.000003 0.000081 -0.000002 -44.370014 0.346960 0.148822 0.000002 0.000000 -0.000001 -44.423664 -3.044403 -0.074314 0.000000 -0.000002 -0.000004 -8.728671 10.710558 0.000007 -0.000000 -0.000000 0.000000 -0.000680 9.278137 -0.000000 0.000000 -0.000001 
